<svg width="1628" height="1144" viewBox="0 0 1628 1144" fill="none" xmlns="http://www.w3.org/2000/svg">
<rect width="1628" height="1144" fill="white"/>
<rect width="920" height="566" transform="translate(354 289)" fill="#FFFDFC"/>
<circle cx="294" cy="769" r="250" fill="#FEF6F4"/>
<circle cx="725" cy="239" r="150" fill="#FEF6F4"/>
<circle cx="1305" cy="562" r="200" fill="#FEF6F4"/>
<path d="M1187.2 393.995L1187.2 393.998C1191.17 399.658 1193.61 406.239 1194.3 413.113C1194.99 419.986 1193.9 426.921 1191.14 433.254C1189.19 437.573 1186.26 441.379 1182.59 444.369C1178.91 447.359 1174.58 449.45 1169.96 450.477L1169.95 450.478C1160.25 452.748 1151.87 449.495 1143 446.056C1141.48 445.464 1139.94 444.867 1138.38 444.291C1138.23 444.237 1138.04 444.229 1137.87 444.345C1137.72 444.442 1137.66 444.577 1137.64 444.635C1137.62 444.703 1137.61 444.764 1137.61 444.798C1137.6 444.817 1137.6 444.834 1137.6 444.847L1137.6 444.864L1137.6 444.87L1137.6 444.873V444.875V444.875V444.876C1137.6 444.876 1137.6 444.876 1138.1 444.876H1137.6V445.013L1137.67 445.13C1147.19 461.244 1155.32 478.14 1161.97 495.634L1161.97 495.641C1162.74 497.581 1163.12 499.653 1163.08 501.739C1163.05 503.825 1162.6 505.883 1161.77 507.796C1160.93 509.708 1159.73 511.436 1158.22 512.881C1156.72 514.325 1154.95 515.457 1153 516.213C1149.59 517.435 1145.86 517.409 1142.47 516.141C1139.08 514.871 1136.24 512.44 1134.47 509.278L1134.47 509.27L1134.46 509.262L1134.04 509.522C1134.46 509.262 1134.46 509.262 1134.46 509.262L1134.46 509.26L1134.46 509.253L1134.44 509.225L1134.37 509.113C1134.31 509.015 1134.22 508.869 1134.11 508.677C1133.87 508.293 1133.52 507.728 1133.07 507.001C1132.16 505.546 1130.84 503.44 1129.18 500.839C1125.85 495.637 1121.15 488.449 1115.65 480.506C1104.68 464.632 1090.51 445.71 1077.83 433.62C1055.37 412.159 1030.94 393.272 1003.91 380.111L1003.91 380.11C977.048 367.112 948.016 359.181 918.275 356.717C888.63 354.047 858.49 356.446 828.252 361.489C814.222 363.824 800.148 355.57 796.543 341.856L796.542 341.853C794.532 334.415 795.493 327.562 798.88 321.84C802.259 316.132 808.075 311.511 815.857 308.574H815.922H816.004L816.081 308.548C957.557 260.953 1076.77 349.386 1086.26 356.432C1086.33 356.481 1086.39 356.526 1086.45 356.567L1086.79 356.823L1087.1 356.519L1087.21 356.402L1087.51 356.108L1087.27 355.765C1067.83 327.491 1059.75 304.606 1058.84 282.958L1058.34 282.979L1058.84 282.957C1057.85 259.576 1087.75 249.329 1101.08 268.614L1187.2 393.995ZM1138.01 445.224L1138.03 445.228C1138.02 445.227 1138.02 445.225 1138.01 445.224Z" stroke="url(#paint0_linear)"/>
<path d="M571.827 584.934L571.829 584.938C573.616 591.611 573.661 598.632 571.958 605.327C570.255 612.021 566.863 618.166 562.105 623.174C558.796 626.566 554.741 629.14 550.263 630.692C545.784 632.244 541.005 632.73 536.305 632.112L536.3 632.111C526.408 630.927 519.642 625.002 512.488 618.738C511.258 617.661 510.015 616.573 508.744 615.498C508.629 615.398 508.451 615.324 508.247 615.374C508.078 615.415 507.978 615.523 507.939 615.57C507.892 615.626 507.863 615.681 507.848 615.711C507.84 615.729 507.833 615.744 507.828 615.756L507.822 615.771L507.819 615.778L507.818 615.78L507.818 615.782L507.818 615.782L507.818 615.783C507.818 615.783 507.817 615.783 508.287 615.954L507.817 615.783L507.771 615.911L507.796 616.046C511.232 634.444 513.092 653.101 513.357 671.815L513.357 671.822C513.416 673.908 513.062 675.984 512.315 677.932C511.568 679.88 510.443 681.661 509.005 683.173C507.567 684.684 505.844 685.897 503.936 686.74C502.029 687.582 499.975 688.039 497.892 688.085C494.27 688.068 490.772 686.767 488.019 684.415C485.264 682.061 483.432 678.807 482.85 675.23L482.848 675.222L482.847 675.213L482.356 675.311C482.847 675.213 482.847 675.213 482.846 675.212L482.846 675.21L482.844 675.202L482.838 675.169L482.812 675.041C482.789 674.928 482.755 674.76 482.71 674.54C482.62 674.099 482.485 673.449 482.309 672.61C481.956 670.933 481.435 668.503 480.76 665.49C479.412 659.462 477.452 651.1 475.007 641.758C470.12 623.086 463.283 600.461 455.498 584.761C441.738 556.915 425.234 530.81 404.341 509.199L404.34 509.198C383.543 487.795 358.974 470.414 331.869 457.927C304.925 445.278 275.782 437.223 245.643 431.62C231.661 429.016 221.258 416.446 222.561 402.326L222.562 402.323C223.217 394.647 226.464 388.535 231.603 384.317C236.73 380.109 243.777 377.756 252.094 377.658L252.155 377.68L252.232 377.708L252.314 377.71C401.536 381.372 483.309 505.244 489.825 515.114C489.87 515.183 489.912 515.245 489.949 515.303L490.187 515.662L490.578 515.48L490.728 515.41L491.104 515.235L491 514.832C482.404 481.615 482.635 457.344 489.184 436.691L488.708 436.54L489.184 436.691C496.25 414.38 527.855 414.98 533.781 437.659L571.827 584.934ZM508.085 616.25L508.096 616.259C508.092 616.256 508.089 616.253 508.085 616.25Z" stroke="url(#paint1_linear)"/>
<path d="M1062.8 788.616L1062.8 788.613C1058.83 782.953 1056.39 776.372 1055.7 769.498C1055.01 762.625 1056.1 755.69 1058.86 749.357C1060.81 745.038 1063.74 741.232 1067.41 738.243C1071.09 735.252 1075.42 733.161 1080.04 732.134L1080.05 732.133C1089.75 729.863 1098.13 733.116 1107 736.555C1108.52 737.147 1110.06 737.744 1111.62 738.32C1111.77 738.374 1111.96 738.382 1112.13 738.266C1112.28 738.17 1112.34 738.034 1112.36 737.976C1112.38 737.908 1112.39 737.847 1112.39 737.813C1112.4 737.794 1112.4 737.777 1112.4 737.764L1112.4 737.747L1112.4 737.741L1112.4 737.738V737.736V737.736V737.735C1112.4 737.735 1112.4 737.735 1111.9 737.735H1112.4V737.598L1112.33 737.481C1102.81 721.367 1094.68 704.471 1088.03 686.977L1088.03 686.97C1087.26 685.03 1086.88 682.958 1086.92 680.872C1086.95 678.786 1087.4 676.728 1088.23 674.815C1089.07 672.903 1090.27 671.175 1091.78 669.73C1093.28 668.286 1095.05 667.154 1097 666.398C1100.41 665.176 1104.14 665.202 1107.53 666.47C1110.92 667.74 1113.76 670.171 1115.53 673.333L1115.53 673.341L1115.54 673.349L1115.96 673.089C1115.54 673.349 1115.54 673.349 1115.54 673.349L1115.54 673.351L1115.54 673.358L1115.56 673.386L1115.63 673.498C1115.69 673.596 1115.78 673.743 1115.89 673.934C1116.13 674.318 1116.48 674.883 1116.93 675.61C1117.84 677.065 1119.16 679.171 1120.82 681.772C1124.15 686.975 1128.85 694.163 1134.35 702.105C1145.32 717.98 1159.49 736.901 1172.17 748.991C1194.63 770.452 1219.06 789.339 1246.09 802.5L1246.09 802.501C1272.95 815.499 1301.98 823.43 1331.72 825.894C1361.37 828.564 1391.51 826.165 1421.75 821.122C1435.78 818.787 1449.85 827.041 1453.46 840.755L1453.46 840.759C1455.47 848.196 1454.51 855.049 1451.12 860.771C1447.74 866.479 1441.92 871.1 1434.14 874.037H1434.08H1434L1433.92 874.063C1292.44 921.658 1173.23 833.225 1163.74 826.179C1163.67 826.13 1163.61 826.085 1163.55 826.044L1163.21 825.788L1162.9 826.092L1162.79 826.209L1162.49 826.503L1162.73 826.846C1182.17 855.12 1190.25 878.005 1191.16 899.654L1191.66 899.633L1191.16 899.654C1192.15 923.036 1162.25 933.282 1148.92 913.997L1062.8 788.616ZM1111.99 737.387L1111.97 737.383C1111.98 737.384 1111.98 737.386 1111.99 737.387Z" stroke="url(#paint2_linear)"/>
<defs>
<linearGradient id="paint0_linear" x1="995" y1="258" x2="995" y2="517.611" gradientUnits="userSpaceOnUse">
<stop stop-color="#B32EFF"/>
<stop offset="0.4375" stop-color="#E185B3"/>
<stop offset="1" stop-color="#F2A498"/>
</linearGradient>
<linearGradient id="paint1_linear" x1="437.731" y1="391.404" x2="348.938" y2="635.359" gradientUnits="userSpaceOnUse">
<stop stop-color="#B32EFF"/>
<stop offset="0.4375" stop-color="#E185B3"/>
<stop offset="1" stop-color="#F2A498"/>
</linearGradient>
<linearGradient id="paint2_linear" x1="1255" y1="924.611" x2="1255" y2="665" gradientUnits="userSpaceOnUse">
<stop stop-color="#B32EFF"/>
<stop offset="0.4375" stop-color="#E185B3"/>
<stop offset="1" stop-color="#F2A498"/>
</linearGradient>
</defs>
</svg>
