<svg width="200" height="40" viewBox="0 0 200 40" fill="none" xmlns="http://www.w3.org/2000/svg">
<rect x="0.5" y="0.5" width="199" height="39" rx="19.5" stroke="url(#paint0_linear)"/>
<path d="M69.8103 27.144C68.2316 27.144 67.0263 26.7387 66.1943 25.928C65.3729 25.1067 64.9622 23.912 64.9622 22.344V16.872C64.9622 16.4987 65.0743 16.2 65.2983 15.976C65.5223 15.752 65.8209 15.64 66.1943 15.64C66.5676 15.64 66.8609 15.752 67.0743 15.976C67.2983 16.2 67.4103 16.4987 67.4103 16.872V22.456C67.4103 23.352 67.6129 24.0347 68.0182 24.504C68.4343 24.9733 69.0316 25.208 69.8103 25.208C70.5889 25.208 71.1863 24.9733 71.6023 24.504C72.0183 24.024 72.2263 23.3413 72.2263 22.456V16.872C72.2263 16.4987 72.3329 16.2 72.5463 15.976C72.7703 15.752 73.0689 15.64 73.4423 15.64C73.8156 15.64 74.1143 15.752 74.3383 15.976C74.5623 16.2 74.6743 16.4987 74.6743 16.872V22.344C74.6743 23.9013 74.2583 25.0907 73.4263 25.912C72.5943 26.7333 71.3889 27.144 69.8103 27.144ZM79.6384 27.128C78.9877 27.128 78.4224 27.0747 77.9424 26.968C77.4624 26.8613 77.041 26.6907 76.6784 26.456C76.5184 26.36 76.3957 26.232 76.3104 26.072C76.225 25.912 76.1824 25.7307 76.1824 25.528C76.1824 25.2827 76.2517 25.08 76.3904 24.92C76.529 24.7493 76.6997 24.664 76.9024 24.664C77.041 24.664 77.1797 24.6907 77.3184 24.744C77.457 24.7867 77.601 24.84 77.7504 24.904C78.049 25.0427 78.3424 25.1547 78.6304 25.24C78.9184 25.3147 79.2757 25.352 79.7024 25.352C80.0757 25.352 80.3637 25.2933 80.5664 25.176C80.7797 25.0587 80.8864 24.8987 80.8864 24.696C80.8864 24.5467 80.8384 24.4293 80.7424 24.344C80.657 24.248 80.4917 24.1627 80.2464 24.088C80.001 24.0133 79.6117 23.9227 79.0784 23.816C78.129 23.6347 77.4464 23.3627 77.0304 23C76.6144 22.6373 76.4064 22.1307 76.4064 21.48C76.4064 21 76.5504 20.568 76.8384 20.184C77.137 19.8 77.5424 19.5013 78.0544 19.288C78.5664 19.064 79.1424 18.952 79.7824 18.952C80.241 18.952 80.689 19.0107 81.1264 19.128C81.5637 19.2453 81.953 19.4107 82.2944 19.624C82.625 19.8267 82.7904 20.1253 82.7904 20.52C82.7904 20.776 82.721 20.9893 82.5824 21.16C82.4437 21.3307 82.273 21.416 82.0704 21.416C81.825 21.416 81.5317 21.32 81.1904 21.128C80.9237 20.9893 80.6784 20.888 80.4544 20.824C80.241 20.7493 79.985 20.712 79.6864 20.712C79.3557 20.712 79.0944 20.776 78.9024 20.904C78.7104 21.0213 78.6144 21.1867 78.6144 21.4C78.6144 21.624 78.7264 21.7947 78.9504 21.912C79.1744 22.0293 79.6064 22.1467 80.2464 22.264C80.961 22.4027 81.521 22.5733 81.9264 22.776C82.3317 22.968 82.625 23.2133 82.8064 23.512C82.9877 23.8107 83.0784 24.1893 83.0784 24.648C83.0784 25.4053 82.7637 26.008 82.1344 26.456C81.5157 26.904 80.6837 27.128 79.6384 27.128ZM90.7633 24.664C90.9766 24.664 91.1473 24.7493 91.2753 24.92C91.4139 25.0907 91.4833 25.3093 91.4833 25.576C91.4833 25.7573 91.4299 25.928 91.3233 26.088C91.2166 26.2373 91.0673 26.3653 90.8753 26.472C90.5126 26.664 90.0913 26.824 89.6113 26.952C89.1313 27.0693 88.6886 27.128 88.2833 27.128C87.4299 27.128 86.6833 26.9627 86.0433 26.632C85.4139 26.3013 84.9286 25.832 84.5872 25.224C84.2459 24.6053 84.0753 23.88 84.0753 23.048C84.0753 22.248 84.2406 21.5387 84.5713 20.92C84.9019 20.3013 85.3606 19.8213 85.9473 19.48C86.5339 19.128 87.2006 18.952 87.9473 18.952C88.6619 18.952 89.2859 19.112 89.8193 19.432C90.3633 19.7413 90.7846 20.1893 91.0833 20.776C91.3819 21.352 91.5312 22.0293 91.5312 22.808C91.5312 23.0427 91.4726 23.224 91.3553 23.352C91.2486 23.4693 91.0939 23.528 90.8913 23.528H86.4113C86.4859 24.1573 86.6779 24.616 86.9873 24.904C87.2966 25.1813 87.7393 25.32 88.3153 25.32C88.6246 25.32 88.9019 25.2827 89.1473 25.208C89.3926 25.1333 89.6646 25.032 89.9633 24.904C90.1126 24.84 90.2566 24.7867 90.3953 24.744C90.5339 24.6907 90.6566 24.664 90.7633 24.664ZM88.0113 20.616C87.5526 20.616 87.1846 20.7653 86.9073 21.064C86.6299 21.352 86.4646 21.7733 86.4113 22.328H89.4993C89.4673 21.7627 89.3233 21.336 89.0673 21.048C88.8219 20.76 88.4699 20.616 88.0113 20.616ZM106.515 15.64C106.889 15.64 107.187 15.752 107.411 15.976C107.635 16.2 107.747 16.4987 107.747 16.872V25.848C107.747 26.2213 107.635 26.5253 107.411 26.76C107.187 26.984 106.889 27.096 106.515 27.096C106.142 27.096 105.843 26.984 105.619 26.76C105.406 26.536 105.299 26.232 105.299 25.848V22.264H100.099V25.848C100.099 26.2213 99.9873 26.5253 99.7633 26.76C99.5393 26.984 99.2459 27.096 98.8832 27.096C98.5099 27.096 98.2113 26.984 97.9873 26.76C97.7633 26.536 97.6513 26.232 97.6513 25.848V16.872C97.6513 16.4987 97.7633 16.2 97.9873 15.976C98.2113 15.752 98.5099 15.64 98.8832 15.64C99.2566 15.64 99.5499 15.752 99.7633 15.976C99.9873 16.2 100.099 16.4987 100.099 16.872V20.28H105.299V16.872C105.299 16.4987 105.406 16.2 105.619 15.976C105.843 15.752 106.142 15.64 106.515 15.64ZM113.579 27.128C112.747 27.128 112.016 26.9627 111.387 26.632C110.758 26.2907 110.272 25.816 109.931 25.208C109.59 24.5893 109.419 23.864 109.419 23.032C109.419 22.2 109.59 21.48 109.931 20.872C110.272 20.2533 110.758 19.7787 111.387 19.448C112.016 19.1173 112.747 18.952 113.579 18.952C114.411 18.952 115.142 19.1173 115.771 19.448C116.4 19.7787 116.886 20.2533 117.227 20.872C117.568 21.48 117.739 22.2 117.739 23.032C117.739 23.864 117.568 24.5893 117.227 25.208C116.886 25.816 116.4 26.2907 115.771 26.632C115.142 26.9627 114.411 27.128 113.579 27.128ZM113.579 25.288C114.752 25.288 115.339 24.536 115.339 23.032C115.339 22.2747 115.184 21.7093 114.875 21.336C114.576 20.9627 114.144 20.776 113.579 20.776C112.406 20.776 111.819 21.528 111.819 23.032C111.819 24.536 112.406 25.288 113.579 25.288ZM124.073 18.952C124.745 18.952 125.343 19.128 125.865 19.48C126.399 19.8213 126.809 20.3067 127.097 20.936C127.396 21.5547 127.545 22.2693 127.545 23.08C127.545 23.8907 127.396 24.6053 127.097 25.224C126.809 25.832 126.404 26.3013 125.881 26.632C125.359 26.9627 124.756 27.128 124.073 27.128C123.54 27.128 123.055 27.0213 122.617 26.808C122.191 26.584 121.86 26.2747 121.625 25.88V28.904C121.625 29.224 121.519 29.48 121.305 29.672C121.092 29.864 120.809 29.96 120.457 29.96C120.084 29.96 119.78 29.8587 119.545 29.656C119.321 29.4533 119.209 29.1867 119.209 28.856V20.12C119.209 19.7787 119.316 19.5067 119.529 19.304C119.753 19.0907 120.047 18.984 120.409 18.984C120.772 18.984 121.06 19.0907 121.273 19.304C121.487 19.5067 121.593 19.7787 121.593 20.12V20.248C121.828 19.8427 122.164 19.528 122.601 19.304C123.039 19.0693 123.529 18.952 124.073 18.952ZM123.369 25.288C123.935 25.288 124.372 25.1013 124.681 24.728C124.991 24.344 125.145 23.7947 125.145 23.08C125.145 22.3547 124.991 21.7947 124.681 21.4C124.372 20.9947 123.935 20.792 123.369 20.792C122.804 20.792 122.367 20.9893 122.057 21.384C121.748 21.768 121.593 22.3227 121.593 23.048C121.593 23.7627 121.748 24.3173 122.057 24.712C122.367 25.096 122.804 25.288 123.369 25.288Z" fill="url(#paint1_linear)"/>
<g clip-path="url(#clip0)">
<path d="M145.174 22.5941L140.014 27.7537C139.686 28.0821 139.154 28.0821 138.826 27.7537C138.498 27.4256 138.498 26.8935 138.826 26.5654L143.391 21.9999L138.826 17.4346C138.498 17.1063 138.498 16.5743 138.826 16.2462C139.154 15.9179 139.686 15.9179 140.014 16.2462L145.174 21.4059C145.338 21.57 145.42 21.7849 145.42 21.9999C145.42 22.215 145.338 22.43 145.174 22.5941Z" fill="url(#paint2_linear)"/>
</g>
<defs>
<linearGradient id="paint0_linear" x1="90.5" y1="2.5" x2="100" y2="40" gradientUnits="userSpaceOnUse">
<stop stop-color="#F2A498"/>
<stop offset="0.34375" stop-color="#E185B3"/>
<stop offset="1" stop-color="#B32EFF"/>
</linearGradient>
<linearGradient id="paint1_linear" x1="94.5" y1="14" x2="96" y2="32" gradientUnits="userSpaceOnUse">
<stop stop-color="#F2A498"/>
<stop offset="0.524485" stop-color="#E185B3"/>
<stop offset="1" stop-color="#B32EFF"/>
</linearGradient>
<linearGradient id="paint2_linear" x1="136.5" y1="13" x2="142" y2="28" gradientUnits="userSpaceOnUse">
<stop stop-color="#F2A498"/>
<stop offset="0.4375" stop-color="#E185B3"/>
<stop offset="1" stop-color="#B32EFF"/>
</linearGradient>
<clipPath id="clip0">
<rect width="12" height="12" fill="white" transform="translate(136 16)"/>
</clipPath>
</defs>
</svg>
